<svg width="327" height="148" viewBox="0 0 327 148" fill="none" xmlns="http://www.w3.org/2000/svg">
<path d="M0 24C0 10.7452 10.7452 0 24 0H303C316.255 0 327 10.7452 327 24V91.5C312.03 93.4087 312.03 115.091 327 117V124C327 137.255 316.255 148 303 148H24C10.7452 148 0 137.255 0 124V117C14.9701 115.091 14.9701 93.4087 0 91.5V24Z" fill="#EEEEEE"/>
<path d="M315.736 104L315.772 105.728C315.898 111.838 320.888 116.726 327 116.726V124C327 137.255 316.255 148 303 148H24C10.7452 148 4.7853e-05 137.255 4.7853e-05 124V116.726C5.85509 116.311 10.4934 111.616 10.838 105.756L11 103L315.736 104Z" fill="#F4F4F4"/>
</svg>
