<svg width="16" height="16" viewBox="0 0 16 16" fill="none" xmlns="http://www.w3.org/2000/svg">
<path d="M11.2133 10.3233C10.9701 10.2011 10.6737 10.2959 10.5466 10.5366C10.4292 10.7819 10.5263 11.0761 10.7666 11.2033C11.3533 11.5033 11.6866 11.87 11.6866 12.2233C11.6866 12.9766 10.1133 13.8166 8.00665 13.8166C5.89998 13.8166 4.31998 12.9833 4.31998 12.25C4.31998 11.9033 4.65331 11.53 5.23998 11.23C5.41591 11.1594 5.53683 10.9955 5.55224 10.8065C5.56766 10.6176 5.47491 10.4362 5.31274 10.3381C5.15056 10.24 4.94685 10.242 4.78665 10.3433C3.97724 10.6484 3.41296 11.3887 3.33331 12.25C3.33331 13.73 5.33331 14.8433 7.99998 14.8433C10.6666 14.8433 12.6666 13.73 12.6666 12.25C12.5943 11.3812 12.0288 10.6315 11.2133 10.3233Z" fill="black"/>
<path fill-rule="evenodd" clip-rule="evenodd" d="M7.49998 12.5433V9.6633C5.30458 9.39879 3.695 7.47017 3.82749 5.26286C3.95998 3.05555 5.7887 1.33331 7.99998 1.33331C10.2113 1.33331 12.04 3.05555 12.1725 5.26286C12.305 7.47017 10.6954 9.39879 8.49998 9.6633V12.5433C8.49998 12.8194 8.27612 13.0433 7.99998 13.0433C7.72384 13.0433 7.49998 12.8194 7.49998 12.5433ZM10.9495 4.29407C10.4545 3.10269 9.29008 2.32727 7.99998 2.32997C6.24524 2.33363 4.82365 3.75522 4.81998 5.50997C4.81729 6.80006 5.5927 7.9645 6.78408 8.45945C7.97546 8.95439 9.34772 8.68218 10.26 7.76994C11.1722 6.8577 11.4444 5.48545 10.9495 4.29407Z" fill="black"/>
<path d="M6.39331 6.24997C6.66946 6.24997 6.89331 6.02611 6.89331 5.74997C6.89331 4.98413 7.51415 4.3633 8.27998 4.3633C8.55612 4.3633 8.77998 4.13944 8.77998 3.8633C8.77998 3.58716 8.55612 3.3633 8.27998 3.3633C7.64523 3.36507 7.03718 3.61892 6.58959 4.069C6.142 4.51909 5.89154 5.12855 5.89331 5.7633C5.89507 5.89415 5.94874 6.01893 6.04251 6.1102C6.13628 6.20147 6.26247 6.25175 6.39331 6.24997Z" fill="black"/>
</svg>
